<svg width="967" height="221" viewBox="0 0 967 221" fill="none" xmlns="http://www.w3.org/2000/svg">
<g clip-path="url(#clip0_67_541)">
<path d="M333.033 181.91C344.713 167.83 349.153 150.14 342.493 132.59C336.533 116.9 319.493 89.2501 305.943 79.3501C292.933 69.8401 276.563 68.2301 264.423 60.0501C259.333 56.6201 244.303 43.7901 240.943 39.1501C238.303 35.5101 239.153 32.9901 232.913 34.3701C233.353 37.9401 233.943 42.1501 233.783 45.7201C233.243 57.7801 221.203 67.5101 214.793 77.0101C202.623 95.0501 192.743 118.39 191.033 140.23C189.593 158.54 189.443 166.29 190.303 169.74C191.213 173.37 195.403 188.47 209.623 199.5C221.803 208.94 234.413 210.02 246.473 211.06C270.113 213.09 288.323 206.49 300.593 201.41C312.783 196.36 326.853 189.35 333.023 181.92L333.033 181.91Z" fill="#660D64"/>
<path d="M252.432 68.1602C262.152 75.4502 288.662 82.1902 299.462 90.0902C310.702 98.3002 324.842 121.24 329.792 134.27C335.322 148.83 331.632 163.52 321.942 175.2C316.822 181.37 305.142 187.19 295.032 191.38C284.912 195.57 269.792 201.05 250.122 199.39C233.082 197.95 222.772 191.86 219.542 189.8C212.922 185.58 209.982 181.69 208.532 179.46C207.382 177.69 204.322 173.56 203.502 165.1C202.842 158.19 203.552 147.7 204.102 140.61C205.522 122.49 213.722 103.12 223.822 88.1502C223.822 88.1502 241.672 60.0902 252.432 68.1602Z" fill="#FFEEE2"/>
<path d="M254.773 82.95C262.623 88.84 284.053 94.29 292.783 100.67C301.863 107.31 313.303 125.85 317.293 136.37C321.763 148.14 318.773 160.01 310.943 169.45C306.803 174.44 297.373 179.14 289.193 182.52C281.013 185.91 268.793 190.34 252.893 188.99C239.113 187.83 230.783 182.9 228.183 181.24C222.833 177.83 220.453 174.68 219.283 172.89C218.353 171.46 215.873 168.12 215.223 161.29C214.683 155.7 215.263 147.22 215.713 141.5C216.863 126.85 223.483 111.2 231.653 99.1C231.653 99.1 246.083 76.42 254.773 82.95Z" fill="#DF3D74"/>
<path d="M39.9925 102.06L34.1025 85.3699V84.1399L68.2225 76.7799H69.4525V201.98H39.9925V102.06ZM54.2325 59.0999C43.6725 59.0999 37.0425 52.2299 37.0425 42.8999C37.0425 33.5699 43.6725 26.9399 54.2325 26.9399C64.7925 26.9399 71.6625 33.8099 71.6625 42.8999C71.6625 51.9899 65.0325 59.0999 54.2325 59.0999Z" fill="#660D64"/>
<path d="M93.2625 171.54C105.042 181.36 118.552 184.55 127.142 184.55C134.012 184.55 139.912 183.08 142.852 181.85C144.812 172.77 145.552 159.51 145.552 146.74V30.1299H175.992V140.85C175.992 177.18 160.282 204.93 121.982 204.93C112.162 204.93 103.082 203.21 98.6625 201.74L91.7925 173.02L93.2625 171.55V171.54Z" fill="#660D64"/>
<path d="M449.083 186.02C434.603 197.07 417.663 205.66 398.753 205.66C386.723 205.66 376.413 202.47 369.293 194.86C362.663 188.23 359.473 178.9 359.473 165.65V102.07L353.823 85.3798V84.1498L387.703 76.7898H388.932V162.71C388.932 170.81 390.653 177.2 395.073 181.37C398.753 185.3 404.893 187.26 412.503 187.26C422.813 187.26 435.583 183.82 447.363 177.44V81.6898L475.592 76.7798H476.823V180.13L483.203 195.84V197.07L450.303 204.68H449.073V186.02H449.083Z" fill="#660D64"/>
<path d="M542.112 106.24V201.99H512.902V102.07L506.522 85.8698V84.6398L539.422 77.2698H540.652V97.1598C551.702 79.7298 566.182 76.0498 575.512 76.0498C578.212 76.0498 580.672 76.2998 582.142 76.7898L584.352 100.36L583.372 100.85C580.182 100.11 575.272 99.6198 569.622 99.6198C561.272 99.6198 550.962 101.09 542.122 106.25L542.112 106.24Z" fill="#660D64"/>
<path d="M639.332 104.03V201.98H610.122V102.06L603.742 85.86V84.63L636.392 77.26H637.622V95.67C652.352 84.38 669.782 75.54 688.932 75.54C700.712 75.54 710.782 78.73 717.902 86.1C724.772 92.97 727.722 102.3 727.722 115.31V201.97H698.262V118.5C698.262 110.4 696.542 104.02 692.122 99.84C688.442 95.91 682.302 93.7 674.942 93.7C664.142 93.7 651.132 97.63 639.342 104.01L639.332 104.03Z" fill="#660D64"/>
<path d="M841.612 186.76C827.132 198.79 809.702 205.66 793.492 205.66C781.212 205.66 770.902 201.73 764.522 195.1C758.632 188.96 755.193 179.63 755.193 169.08C755.193 155.33 761.082 146 768.452 140.36C779.992 131.52 799.632 127.1 824.182 127.1C829.342 127.1 834.982 127.35 840.142 127.59V120.96C840.142 110.4 837.932 102.55 833.022 98.1298C828.852 93.9598 822.463 91.9898 813.383 91.9898C797.673 91.9898 780.242 97.8798 764.532 107.46L763.062 106.23L772.642 79.7198C781.232 77.9998 798.662 75.5498 814.372 75.5498C832.292 75.5498 848.252 78.9898 857.822 88.5598C866.412 97.3998 869.112 110.9 869.112 126.37V182.1L875.253 196.34V197.57L843.092 204.2H841.622V186.77L841.612 186.76ZM840.142 177.92V143.3C833.022 141.58 823.692 140.6 813.872 140.6C801.602 140.6 792.272 142.32 786.872 144.28C785.892 149.19 785.152 155.82 785.152 162.69C785.152 176.19 788.342 181.59 791.782 184.54C795.462 187.73 800.372 189.21 806.262 189.21C817.312 189.21 829.832 184.79 840.142 177.92Z" fill="#660D64"/>
<path d="M907.402 35.29L901.262 18.6V17.37L935.633 10H936.862V201.98H907.402V35.29Z" fill="#660D64"/>
</g>
<defs>
<clipPath id="clip0_67_541">
<rect width="902.76" height="201.44" fill="white" transform="translate(34.1025 10)"/>
</clipPath>
</defs>
</svg>
