<svg width="40" height="40" viewBox="0 0 40 40" fill="none" xmlns="http://www.w3.org/2000/svg">
<g clip-path="url(#clip0_61_14)">
<path d="M17.1881 39.2428C16.7359 39.2428 16.2751 39.2285 15.82 39.1999C13.2941 39.0439 10.432 38.8679 7.65144 36.8157C4.62187 34.5804 3.50993 31.4921 3.1722 30.2671C2.9375 29.4185 2.93178 27.8 3.14644 23.8588C3.38256 19.5241 5.11702 14.5426 7.90331 10.1921C8.29685 9.57675 8.792 8.95853 9.26998 8.36178C10.3791 6.97507 11.5253 5.54114 11.5568 4.04568C11.5697 3.44892 11.4595 2.70906 11.3622 2.05506L11.2162 1.0619L11.9733 0.875859C12.3038 0.794288 12.5672 0.75708 12.8033 0.75708C13.7435 0.75708 14.0955 1.37959 14.3059 1.75167C14.3818 1.88476 14.4519 2.0107 14.5521 2.14235C15.1746 2.95949 18.2743 5.49821 19.3132 6.16366C20.4294 6.87776 21.7475 7.3171 23.1442 7.78363C24.7956 8.33459 26.5029 8.90415 28.0613 9.98604C31.1524 12.1341 34.8975 17.9914 36.2227 21.2443C37.7282 24.9421 37.0556 29.0049 34.3795 32.3923C33.2661 33.8019 30.922 35.3031 27.4145 36.8558C24.7456 38.0364 21.4441 39.2428 17.1881 39.2428Z" fill="#FFEEE2"/>
<path d="M33.7053 31.8585C36.0608 28.8761 36.8966 25.1783 35.4269 21.5662C34.1117 18.3363 30.4339 12.6779 27.5717 10.6887C24.8212 8.77678 21.4138 8.52491 18.8508 6.8849C17.7761 6.19656 14.5905 3.60633 13.8707 2.66039C13.304 1.91767 13.4685 1.39103 12.1792 1.70873C12.2879 2.44716 12.431 3.32011 12.4153 4.06284C12.3638 6.5715 9.91091 8.65084 8.62581 10.6558C6.18727 14.4638 4.25103 19.361 4.00346 23.906C3.79595 27.717 3.80311 29.3283 3.99917 30.0396C4.20524 30.788 5.15118 33.9049 8.16071 36.1245C10.7381 38.0249 13.3626 38.1881 15.8727 38.3426C20.7928 38.646 24.5436 37.1849 27.0666 36.0687C29.5738 34.9596 32.4617 33.4341 33.7053 31.8585Z" fill="#660D64"/>
<path d="M9.06369 13.6753C9.06369 13.6753 -0.377065 29.0435 15.3103 37.1219C15.3103 37.1219 4.32543 29.1752 9.06369 13.6753Z" fill="#CD43A8"/>
<path d="M20.6182 37.9763C20.6182 37.9763 6.54651 21.7952 12.9548 8.98572C12.9548 8.98572 8.78614 21.3974 21.8332 37.7731" fill="#CD43A8"/>
<path d="M23.0395 9.66553C23.0395 9.66553 39.2664 17.5407 30.388 32.7902C30.388 32.7902 35.371 20.181 23.0395 9.66553Z" fill="#CD43A8"/>
<path d="M26.3082 36.3937C26.3082 36.3937 29.5309 15.1566 17.2366 7.80664C17.2366 7.80664 27.4215 15.9809 25.2334 36.8044" fill="#CD43A8"/>
</g>
<defs>
<clipPath id="clip0_61_14">
<rect width="34.0194" height="38.4857" fill="white" transform="translate(2.9903 0.75708)"/>
</clipPath>
</defs>
</svg>
